<?xml version="1.0" encoding="UTF-8"?>
<svg width="100" height="100" viewBox="0 0 100 100" fill="none" xmlns="http://www.w3.org/2000/svg">
  <defs>
    <linearGradient id="aether-grad" x1="0%" y1="0%" x2="100%" y2="100%">
      <stop offset="0%" stop-color="#603813" />
      <stop offset="100%" stop-color="#b29f94" />
    </linearGradient>
  </defs>
  
  <!-- Outer circle -->
  <circle cx="50" cy="50" r="45" stroke="url(#aether-grad)" stroke-width="2" fill="none" />
  
  <!-- Mesh nodes and connections -->
  <g stroke="url(#aether-grad)" stroke-width="1.5" fill="none">
    <!-- Mesh nodes representing IoT devices -->
    <circle cx="30" cy="30" r="5" fill="url(#aether-grad)" />
    <circle cx="70" cy="30" r="5" fill="url(#aether-grad)" />
    <circle cx="70" cy="70" r="5" fill="url(#aether-grad)" />
    <circle cx="30" cy="70" r="5" fill="url(#aether-grad)" />
    <circle cx="50" cy="20" r="5" fill="url(#aether-grad)" />
    <circle cx="80" cy="50" r="5" fill="url(#aether-grad)" />
    <circle cx="50" cy="80" r="5" fill="url(#aether-grad)" />
    <circle cx="20" cy="50" r="5" fill="url(#aether-grad)" />
    <circle cx="50" cy="50" r="8" fill="url(#aether-grad)" /> <!-- Central hub -->
    
    <!-- Mesh connections -->
    <line x1="30" y1="30" x2="50" y2="20" />
    <line x1="50" y1="20" x2="70" y2="30" />
    <line x1="70" y1="30" x2="80" y2="50" />
    <line x1="80" y1="50" x2="70" y2="70" />
    <line x1="70" y1="70" x2="50" y2="80" />
    <line x1="50" y1="80" x2="30" y2="70" />
    <line x1="30" y1="70" x2="20" y2="50" />
    <line x1="20" y1="50" x2="30" y2="30" />
    
    <!-- Connections to central hub -->
    <line x1="50" y1="50" x2="30" y2="30" />
    <line x1="50" y1="50" x2="70" y2="30" />
    <line x1="50" y1="50" x2="70" y2="70" />
    <line x1="50" y1="50" x2="30" y2="70" />
    <line x1="50" y1="50" x2="50" y2="20" />
    <line x1="50" y1="50" x2="80" y2="50" />
    <line x1="50" y1="50" x2="50" y2="80" />
    <line x1="50" y1="50" x2="20" y2="50" />
  </g>
  
  <!-- Animated signal pulses -->
  <g>
    <circle cx="50" cy="50" r="15" stroke="url(#aether-grad)" stroke-width="1" opacity="0.3" fill="none">
      <animate attributeName="r" values="15;30;15" dur="3s" repeatCount="indefinite" />
      <animate attributeName="opacity" values="0.6;0;0.6" dur="3s" repeatCount="indefinite" />
    </circle>
    <circle cx="50" cy="50" r="25" stroke="url(#aether-grad)" stroke-width="1" opacity="0.2" fill="none">
      <animate attributeName="r" values="25;40;25" dur="3s" repeatCount="indefinite" />
      <animate attributeName="opacity" values="0.4;0;0.4" dur="3s" repeatCount="indefinite" />
    </circle>
  </g>
</svg>