<?xml version="1.0" encoding="UTF-8"?>
<svg width="100" height="100" viewBox="0 0 100 100" fill="none" xmlns="http://www.w3.org/2000/svg">
  <defs>
    <linearGradient id="vault-grad" x1="0%" y1="0%" x2="100%" y2="100%">
      <stop offset="0%" stop-color="#4C0099" />
      <stop offset="100%" stop-color="#8300E5" />
    </linearGradient>
  </defs>
  
  <!-- Vault container -->
  <rect x="20" y="25" width="60" height="50" rx="5" stroke="url(#vault-grad)" stroke-width="3" fill="none" />
  
  <!-- Vault door -->
  <rect x="28" y="33" width="44" height="34" rx="3" stroke="url(#vault-grad)" stroke-width="2" fill="none" />
  
  <!-- Vault handle -->
  <circle cx="65" cy="50" r="5" stroke="url(#vault-grad)" stroke-width="2" fill="none" />
  <circle cx="65" cy="50" r="2" fill="url(#vault-grad)" />
  
  <!-- Lock mechanism -->
  <circle cx="50" cy="50" r="12" stroke="url(#vault-grad)" stroke-width="1" fill="none" />
  <circle cx="50" cy="50" r="8" fill="url(#vault-grad)" opacity="0.6" />
  <path d="M50 42L50 50L58 50" stroke="white" stroke-width="2" stroke-linecap="round" />
  
  <!-- Fractal encryption patterns -->
  <g stroke="url(#vault-grad)" stroke-width="1" opacity="0.7">
    <!-- Encryption pattern 1 - top -->
    <path d="M32 38H48" />
    <path d="M33 41H47" />
    <path d="M34 44H46" />
    
    <!-- Encryption pattern 2 - bottom -->
    <path d="M32 56H48" />
    <path d="M33 59H47" />
    <path d="M34 62H46" />
  </g>
  
  <!-- Animated quantum-resistant encryption -->
  <g opacity="0.5">
    <circle cx="50" cy="50" r="20" stroke="url(#vault-grad)" stroke-width="0.5" fill="none">
      <animate attributeName="r" values="20;22;20" dur="2s" repeatCount="indefinite" />
      <animate attributeName="opacity" values="0.5;0.8;0.5" dur="2s" repeatCount="indefinite" />
    </circle>
    <circle cx="50" cy="50" r="25" stroke="url(#vault-grad)" stroke-width="0.5" fill="none">
      <animate attributeName="r" values="25;27;25" dur="2.5s" repeatCount="indefinite" />
      <animate attributeName="opacity" values="0.3;0.6;0.3" dur="2.5s" repeatCount="indefinite" />
    </circle>
    <circle cx="50" cy="50" r="30" stroke="url(#vault-grad)" stroke-width="0.5" fill="none">
      <animate attributeName="r" values="30;32;30" dur="3s" repeatCount="indefinite" />
      <animate attributeName="opacity" values="0.2;0.4;0.2" dur="3s" repeatCount="indefinite" />
    </circle>
  </g>
</svg>