<?xml version="1.0" encoding="UTF-8"?>
<svg width="150" height="150" viewBox="0 0 150 150" xmlns="http://www.w3.org/2000/svg">
  <defs>
    <linearGradient id="vaultGrad" x1="0%" y1="0%" x2="100%" y2="100%">
      <stop offset="0%" style="stop-color:#4C0099;stop-opacity:1" />
      <stop offset="100%" style="stop-color:#8300E5;stop-opacity:1" />
    </linearGradient>
  </defs>
  
  <!-- Background Circle -->
  <circle cx="75" cy="75" r="70" fill="url(#vaultGrad)" />
  
  <!-- Vault Door Outer Ring -->
  <circle cx="75" cy="75" r="50" fill="none" stroke="white" stroke-width="4" />
  
  <!-- Vault Door Inner Design -->
  <g fill="none" stroke="white" stroke-width="2">
    <circle cx="75" cy="75" r="40" />
    <circle cx="75" cy="75" r="30" />
    <circle cx="75" cy="75" r="20" />
    
    <!-- Vault Handles and Locks -->
    <circle cx="75" cy="75" r="10" fill="white" stroke="none" />
    
    <!-- Radial Lines -->
    <line x1="75" y1="25" x2="75" y2="35" />
    <line x1="75" y1="115" x2="75" y2="125" />
    <line x1="25" y1="75" x2="35" y2="75" />
    <line x1="115" y1="75" x2="125" y2="75" />
    
    <line x1="39" y1="39" x2="46" y2="46" />
    <line x1="111" y1="39" x2="104" y2="46" />
    <line x1="39" y1="111" x2="46" y2="104" />
    <line x1="111" y1="111" x2="104" y2="104" />
  </g>
  
  <!-- Lock Mechanism -->
  <g fill="white">
    <rect x="72" y="59" width="6" height="16" rx="2" />
    <circle cx="75" cy="55" r="3" />
  </g>
  
  <!-- Vault Door Lock Bolts -->
  <g stroke="white" stroke-width="3">
    <line x1="33" y1="75" x2="45" y2="75" />
    <line x1="105" y1="75" x2="117" y2="75" />
    <line x1="75" y1="33" x2="75" y2="45" />
    <line x1="75" y1="105" x2="75" y2="117" />
    
    <line x1="45" y1="45" x2="53" y2="53" />
    <line x1="105" y1="45" x2="97" y2="53" />
    <line x1="45" y1="105" x2="53" y2="97" />
    <line x1="105" y1="105" x2="97" y2="97" />
  </g>
  
  <!-- Fractal Pattern Elements -->
  <g fill="white" opacity="0.7">
    <circle cx="55" cy="55" r="2" />
    <circle cx="95" cy="55" r="2" />
    <circle cx="55" cy="95" r="2" />
    <circle cx="95" cy="95" r="2" />
    
    <circle cx="65" cy="50" r="1.5" />
    <circle cx="85" cy="50" r="1.5" />
    <circle cx="65" cy="100" r="1.5" />
    <circle cx="85" cy="100" r="1.5" />
    
    <circle cx="50" cy="65" r="1.5" />
    <circle cx="50" cy="85" r="1.5" />
    <circle cx="100" cy="65" r="1.5" />
    <circle cx="100" cy="85" r="1.5" />
  </g>
</svg>