<?xml version="1.0" encoding="UTF-8"?>
<svg width="150" height="150" viewBox="0 0 150 150" xmlns="http://www.w3.org/2000/svg">
  <defs>
    <linearGradient id="fractalGrad" x1="0%" y1="0%" x2="100%" y2="100%">
      <stop offset="0%" style="stop-color:#2E3192;stop-opacity:1" />
      <stop offset="100%" style="stop-color:#1BFFFF;stop-opacity:1" />
    </linearGradient>
  </defs>
  
  <!-- Background Circle -->
  <circle cx="75" cy="75" r="70" fill="url(#fractalGrad)" />
  
  <!-- Fractal Network -->
  <g stroke="white" stroke-width="2.5" fill="none">
    <!-- Main Nodes -->
    <circle cx="75" cy="75" r="5" fill="white" />
    <circle cx="35" cy="55" r="5" fill="white" />
    <circle cx="115" cy="55" r="5" fill="white" />
    <circle cx="35" cy="95" r="5" fill="white" />
    <circle cx="115" cy="95" r="5" fill="white" />
    
    <!-- Level 1 Connections -->
    <line x1="75" y1="75" x2="35" y2="55" />
    <line x1="75" y1="75" x2="115" y2="55" />
    <line x1="75" y1="75" x2="35" y2="95" />
    <line x1="75" y1="75" x2="115" y2="95" />
    
    <!-- Secondary Nodes -->
    <circle cx="25" cy="35" r="3" fill="white" />
    <circle cx="45" cy="35" r="3" fill="white" />
    <circle cx="125" cy="35" r="3" fill="white" />
    <circle cx="105" cy="35" r="3" fill="white" />
    <circle cx="25" cy="115" r="3" fill="white" />
    <circle cx="45" cy="115" r="3" fill="white" />
    <circle cx="125" cy="115" r="3" fill="white" />
    <circle cx="105" cy="115" r="3" fill="white" />
    
    <!-- Level 2 Connections -->
    <line x1="35" y1="55" x2="25" y2="35" />
    <line x1="35" y1="55" x2="45" y2="35" />
    <line x1="115" y1="55" x2="105" y2="35" />
    <line x1="115" y1="55" x2="125" y2="35" />
    <line x1="35" y1="95" x2="25" y2="115" />
    <line x1="35" y1="95" x2="45" y2="115" />
    <line x1="115" y1="95" x2="105" y2="115" />
    <line x1="115" y1="95" x2="125" y2="115" />
    
    <!-- Tertiary Nodes -->
    <circle cx="15" cy="25" r="2" fill="white" />
    <circle cx="35" cy="25" r="2" fill="white" />
    <circle cx="115" cy="25" r="2" fill="white" />
    <circle cx="135" cy="25" r="2" fill="white" />
    <circle cx="15" cy="125" r="2" fill="white" />
    <circle cx="35" cy="125" r="2" fill="white" />
    <circle cx="115" cy="125" r="2" fill="white" />
    <circle cx="135" cy="125" r="2" fill="white" />
    
    <!-- Level 3 Connections -->
    <line x1="25" y1="35" x2="15" y2="25" />
    <line x1="45" y1="35" x2="35" y2="25" />
    <line x1="105" y1="35" x2="115" y2="25" />
    <line x1="125" y1="35" x2="135" y2="25" />
    <line x1="25" y1="115" x2="15" y2="125" />
    <line x1="45" y1="115" x2="35" y2="125" />
    <line x1="105" y1="115" x2="115" y2="125" />
    <line x1="125" y1="115" x2="135" y2="125" />
  </g>
</svg>