<?xml version="1.0" encoding="UTF-8"?>
<svg width="100" height="100" viewBox="0 0 100 100" fill="none" xmlns="http://www.w3.org/2000/svg">
  <defs>
    <linearGradient id="guard-grad" x1="0%" y1="0%" x2="100%" y2="100%">
      <stop offset="0%" stop-color="#000428" />
      <stop offset="100%" stop-color="#004e92" />
    </linearGradient>
  </defs>
  
  <!-- Shield base -->
  <path d="M50 10L15 40V60C15 75 30 90 50 95C70 90 85 75 85 60V40L50 10Z" stroke="url(#guard-grad)" stroke-width="3" fill="none" />
  
  <!-- Quantum detection layers -->
  <path d="M50 20L25 42V58C25 68 35 78 50 82C65 78 75 68 75 58V42L50 20Z" stroke="url(#guard-grad)" stroke-width="2" fill="none" opacity="0.7" />
  <path d="M50 30L35 44V56C35 61 40 66 50 68C60 66 65 61 65 56V44L50 30Z" stroke="url(#guard-grad)" stroke-width="2" fill="none" opacity="0.8" />
  
  <!-- Central eye/scanner -->
  <circle cx="50" cy="50" r="12" fill="url(#guard-grad)" />
  <circle cx="50" cy="50" r="8" fill="white" opacity="0.3" />
  <circle cx="50" cy="50" r="4" fill="url(#guard-grad)" />
  
  <!-- Scanning effects -->
  <g opacity="0.6">
    <!-- Horizontal scan line -->
    <rect x="25" y="49" width="50" height="2" fill="url(#guard-grad)">
      <animate attributeName="y" values="40;60;40" dur="3s" repeatCount="indefinite" />
      <animate attributeName="opacity" values="0.2;0.6;0.2" dur="3s" repeatCount="indefinite" />
    </rect>
    
    <!-- Vertical scan line -->
    <rect x="49" y="25" width="2" height="50" fill="url(#guard-grad)">
      <animate attributeName="x" values="40;60;40" dur="3s" repeatCount="indefinite" />
      <animate attributeName="opacity" values="0.2;0.6;0.2" dur="3s" repeatCount="indefinite" />
    </rect>
  </g>
  
  <!-- Radar/detection rings -->
  <g opacity="0.5">
    <circle cx="50" cy="50" r="16" stroke="url(#guard-grad)" stroke-width="1" fill="none">
      <animate attributeName="r" values="16;18;16" dur="2s" repeatCount="indefinite" />
      <animate attributeName="opacity" values="0.5;0.8;0.5" dur="2s" repeatCount="indefinite" />
    </circle>
    <circle cx="50" cy="50" r="22" stroke="url(#guard-grad)" stroke-width="1" fill="none">
      <animate attributeName="r" values="22;24;22" dur="3s" repeatCount="indefinite" />
      <animate attributeName="opacity" values="0.4;0.7;0.4" dur="3s" repeatCount="indefinite" />
    </circle>
    <circle cx="50" cy="50" r="28" stroke="url(#guard-grad)" stroke-width="1" fill="none">
      <animate attributeName="r" values="28;30;28" dur="4s" repeatCount="indefinite" />
      <animate attributeName="opacity" values="0.3;0.6;0.3" dur="4s" repeatCount="indefinite" />
    </circle>
  </g>
  
  <!-- Threat detection rays -->
  <g opacity="0.7">
    <path d="M50 20L30 85" stroke="url(#guard-grad)" stroke-width="1">
      <animate attributeName="d" values="M50 20L30 85;M50 20L70 85;M50 20L30 85" dur="10s" repeatCount="indefinite" />
    </path>
    <path d="M50 20L70 85" stroke="url(#guard-grad)" stroke-width="1">
      <animate attributeName="d" values="M50 20L70 85;M50 20L30 85;M50 20L70 85" dur="10s" repeatCount="indefinite" />
    </path>
  </g>
</svg>