<?xml version="1.0" encoding="UTF-8"?>
<svg width="150" height="150" viewBox="0 0 150 150" xmlns="http://www.w3.org/2000/svg">
  <defs>
    <linearGradient id="zeroTrustGrad" x1="0%" y1="0%" x2="100%" y2="100%">
      <stop offset="0%" style="stop-color:#0F2027;stop-opacity:1" />
      <stop offset="100%" style="stop-color:#2C5364;stop-opacity:1" />
    </linearGradient>
  </defs>
  
  <!-- Background Shield -->
  <path d="M75,10 L25,30 C25,95 45,120 75,140 C105,120 125,95 125,30 L75,10 Z" fill="url(#zeroTrustGrad)" />
  
  <!-- Lock Body -->
  <rect x="50" y="60" width="50" height="40" rx="5" ry="5" fill="white" />
  
  <!-- Lock Shackle -->
  <path d="M65,60 L65,45 C65,35 85,35 85,45 L85,60" stroke="white" stroke-width="8" fill="none" />
  
  <!-- Key Hole -->
  <circle cx="75" cy="80" r="10" fill="url(#zeroTrustGrad)" />
  
  <!-- Network Connections -->
  <line x1="30" y1="40" x2="50" y2="60" stroke="white" stroke-width="2" stroke-dasharray="4" />
  <line x1="120" y1="40" x2="100" y2="60" stroke="white" stroke-width="2" stroke-dasharray="4" />
  <line x1="30" y1="100" x2="50" y2="80" stroke="white" stroke-width="2" stroke-dasharray="4" />
  <line x1="120" y1="100" x2="100" y2="80" stroke="white" stroke-width="2" stroke-dasharray="4" />
  
  <!-- Connection Points -->
  <circle cx="30" cy="40" r="5" fill="white" />
  <circle cx="120" cy="40" r="5" fill="white" />
  <circle cx="30" cy="100" r="5" fill="white" />
  <circle cx="120" cy="100" r="5" fill="white" />
</svg>