<?xml version="1.0" encoding="UTF-8"?>
<svg width="100px" height="100px" viewBox="0 0 100 100" xmlns="http://www.w3.org/2000/svg">
  <defs>
    <linearGradient id="fractalGradient" x1="0%" y1="0%" x2="100%" y2="100%">
      <stop offset="0%" stop-color="#1e3264" />
      <stop offset="100%" stop-color="#5a7bef" />
    </linearGradient>
    <filter id="fractalGlow" x="-30%" y="-30%" width="160%" height="160%">
      <feGaussianBlur stdDeviation="2.5" result="blur" />
      <feComposite in="SourceGraphic" in2="blur" operator="over" />
    </filter>
  </defs>
  
  <!-- Main circular coin base -->
  <circle cx="50" cy="50" r="45" fill="#0a1530" stroke="url(#fractalGradient)" stroke-width="2" />
  
  <!-- Fractal pattern - Sierpinski triangle-inspired structure -->
  <g filter="url(#fractalGlow)">
    <!-- Main equilateral triangle -->
    <path d="M50,15 L20,75 L80,75 Z" fill="none" stroke="#5a7bef" stroke-width="1.5" />
    
    <!-- Level 1 subdivision -->
    <path d="M50,15 L35,45 L65,45 Z" fill="none" stroke="#5a7bef" stroke-width="1.2" />
    <path d="M35,45 L20,75 L50,75 Z" fill="none" stroke="#5a7bef" stroke-width="1.2" />
    <path d="M65,45 L50,75 L80,75 Z" fill="none" stroke="#5a7bef" stroke-width="1.2" />
    
    <!-- Level 2 subdivision (selective to avoid overcrowding) -->
    <path d="M50,15 L42.5,30 L57.5,30 Z" fill="none" stroke="#00bfff" stroke-width="0.8" />
    <path d="M35,45 L27.5,60 L42.5,60 Z" fill="none" stroke="#00bfff" stroke-width="0.8" />
    <path d="M65,45 L57.5,60 L72.5,60 Z" fill="none" stroke="#00bfff" stroke-width="0.8" />
    
    <!-- Recursive connections -->
    <line x1="50" y1="15" x2="50" y2="75" stroke="#1e3264" stroke-width="0.5" stroke-dasharray="2,2" />
    <line x1="20" y1="75" x2="80" y2="75" stroke="#1e3264" stroke-width="0.5" stroke-dasharray="2,2" />
    <line x1="35" y1="45" x2="65" y2="45" stroke="#1e3264" stroke-width="0.5" stroke-dasharray="2,2" />
    
    <!-- Center element - the core of FractalCoin -->
    <circle cx="50" cy="45" r="5" fill="url(#fractalGradient)" />
    
    <!-- Orbital dots at key intersection points -->
    <circle cx="50" cy="15" r="2" fill="#00bfff" />
    <circle cx="20" cy="75" r="2" fill="#00bfff" />
    <circle cx="80" cy="75" r="2" fill="#00bfff" />
    <circle cx="35" cy="45" r="1.5" fill="#5a7bef" />
    <circle cx="65" cy="45" r="1.5" fill="#5a7bef" />
    <circle cx="50" cy="75" r="1.5" fill="#5a7bef" />
    
    <!-- Smaller nodes at level 2 intersections -->
    <circle cx="42.5" cy="30" r="1" fill="#00bfff" />
    <circle cx="57.5" cy="30" r="1" fill="#00bfff" />
    <circle cx="27.5" cy="60" r="1" fill="#00bfff" />
    <circle cx="42.5" cy="60" r="1" fill="#00bfff" />
    <circle cx="57.5" cy="60" r="1" fill="#00bfff" />
    <circle cx="72.5" cy="60" r="1" fill="#00bfff" />
  </g>
</svg>