<?xml version="1.0" encoding="UTF-8" standalone="no"?>
<svg width="200" height="200" viewBox="0 0 200 200" xmlns="http://www.w3.org/2000/svg">
  <!-- Background circle -->
  <circle cx="100" cy="100" r="90" fill="#0a0a14"/>
  
  <!-- A letter -->
  <path d="M100 40 L135 130 H115 L108 115 H72 L65 130 H45 L80 40 H100 Z M100 70 L85 100 H95 L100 90 L105 100 H115 L100 70 Z" 
        fill="white"/>
  
  <!-- Glowing ring -->
  <filter id="glow">
    <feGaussianBlur stdDeviation="5" result="blur" />
    <feComposite in="SourceGraphic" in2="blur" operator="over" />
  </filter>
  
  <!-- Energy ring path -->
  <path d="M100,20 
           C130,20 160,35 180,60 
           C185,70 190,85 190,100 
           C190,115 185,130 180,140 
           C175,150 160,170 130,180 
           C110,185 90,185 70,180 
           C40,170 25,150 20,140 
           C15,130 10,115 10,100 
           C10,85 15,70 20,60 
           C40,35 70,20 100,20 Z" 
        fill="none" 
        stroke="url(#energyGradient)" 
        stroke-width="8"
        stroke-linecap="round"
        filter="url(#glow)" />
  
  <!-- Energy gradient -->
  <linearGradient id="energyGradient" x1="0%" y1="0%" x2="100%" y2="100%">
    <stop offset="0%" stop-color="#ff00ff" />
    <stop offset="50%" stop-color="#aa00ff" />
    <stop offset="100%" stop-color="#ff00ff" />
    <animate attributeName="x1" values="0%;100%;0%" dur="3s" repeatCount="indefinite" />
    <animate attributeName="y1" values="0%;100%;0%" dur="4s" repeatCount="indefinite" />
    <animate attributeName="x2" values="100%;0%;100%" dur="3s" repeatCount="indefinite" />
    <animate attributeName="y2" values="100%;0%;100%" dur="4s" repeatCount="indefinite" />
  </linearGradient>
  
  <!-- Small energy particles -->
  <g filter="url(#glow)">
    <circle cx="30" cy="70" r="2" fill="#aa00ff">
      <animate attributeName="opacity" values="0.3;0.9;0.3" dur="2s" repeatCount="indefinite" />
    </circle>
    <circle cx="170" cy="70" r="2" fill="#ff00ff">
      <animate attributeName="opacity" values="0.5;1;0.5" dur="3s" repeatCount="indefinite" />
    </circle>
    <circle cx="100" cy="30" r="2" fill="#ff00ff">
      <animate attributeName="opacity" values="0.2;0.8;0.2" dur="2.5s" repeatCount="indefinite" />
    </circle>
    <circle cx="65" cy="160" r="2" fill="#aa00ff">
      <animate attributeName="opacity" values="0.4;1;0.4" dur="3.5s" repeatCount="indefinite" />
    </circle>
    <circle cx="140" cy="150" r="2" fill="#ff00ff">
      <animate attributeName="opacity" values="0.3;0.9;0.3" dur="2.7s" repeatCount="indefinite" />
    </circle>
  </g>
</svg>
